<svg width="59" height="21" viewBox="0 0 59 21" fill="none" xmlns="http://www.w3.org/2000/svg">
<rect width="59" height="21" rx="6" fill="#0076D2"/>
<path d="M13 5.5C12.6055 5.5 12.2857 5.8198 12.2857 6.21429V9.78571H8.71429C8.3198 9.78571 8 10.1055 8 10.5C8 10.8945 8.3198 11.2143 8.71429 11.2143H12.2857V14.7857C12.2857 15.1802 12.6055 15.5 13 15.5C13.3945 15.5 13.7143 15.1802 13.7143 14.7857V11.2143H17.2857C17.6802 11.2143 18 10.8945 18 10.5C18 10.1055 17.6802 9.78571 17.2857 9.78571H13.7143V6.21429C13.7143 5.8198 13.3945 5.5 13 5.5Z" fill="white"/>
<path d="M33.9773 6.27273V15H32.9545L28.1989 8.14773H28.1136V15H27.0568V6.27273H28.0795L32.8523 13.142H32.9375V6.27273H33.9773ZM38.2999 15.1364C37.6692 15.1364 37.1252 14.9972 36.6678 14.7188C36.2133 14.4375 35.8624 14.0455 35.6153 13.5426C35.371 13.0369 35.2488 12.4489 35.2488 11.7784C35.2488 11.108 35.371 10.517 35.6153 10.0057C35.8624 9.49148 36.2062 9.09091 36.6465 8.80398C37.0897 8.5142 37.6067 8.36932 38.1977 8.36932C38.5386 8.36932 38.8752 8.42614 39.2076 8.53977C39.54 8.65341 39.8425 8.83807 40.1153 9.09375C40.388 9.34659 40.6053 9.68182 40.7673 10.0994C40.9292 10.517 41.0102 11.0312 41.0102 11.642V12.0682H35.9647V11.1989H39.9874C39.9874 10.8295 39.9136 10.5 39.7658 10.2102C39.621 9.92045 39.4136 9.69176 39.1437 9.52415C38.8766 9.35653 38.5613 9.27273 38.1977 9.27273C37.7971 9.27273 37.4505 9.37216 37.1579 9.57102C36.8681 9.76705 36.6451 10.0227 36.4888 10.3381C36.3326 10.6534 36.2545 10.9915 36.2545 11.3523V11.9318C36.2545 12.4261 36.3397 12.8452 36.5102 13.1889C36.6835 13.5298 36.9235 13.7898 37.2303 13.9688C37.5371 14.1449 37.8937 14.233 38.2999 14.233C38.5641 14.233 38.8028 14.196 39.0158 14.1222C39.2317 14.0455 39.4178 13.9318 39.5741 13.7812C39.7303 13.6278 39.8511 13.4375 39.9363 13.2102L40.9079 13.483C40.8056 13.8125 40.6337 14.1023 40.3923 14.3523C40.1508 14.5994 39.8525 14.7926 39.4974 14.9318C39.1423 15.0682 38.7431 15.1364 38.2999 15.1364ZM43.6229 15L41.6286 8.45455H42.6854L44.1002 13.4659H44.1684L45.5661 8.45455H46.64L48.0207 13.4489H48.0888L49.5036 8.45455H50.5604L48.5661 15H47.5775L46.1457 9.97159H46.0434L44.6116 15H43.6229Z" fill="white"/>
</svg>
