<svg width="24" height="24" viewBox="0 0 24 24" fill="none" xmlns="http://www.w3.org/2000/svg">
<path d="M8.42999 11.9943C8.42999 11.5998 8.74979 11.28 9.14428 11.28C9.53877 11.28 9.85856 11.5998 9.85856 11.9943C9.85856 12.3888 9.53877 12.7086 9.14428 12.7086C8.74979 12.7086 8.42999 12.3888 8.42999 11.9943Z" fill="white"/>
<path d="M11.2871 11.9943C11.2871 11.5998 11.6069 11.28 12.0014 11.28C12.3959 11.28 12.7157 11.5998 12.7157 11.9943C12.7157 12.3888 12.3959 12.7086 12.0014 12.7086C11.6069 12.7086 11.2871 12.3888 11.2871 11.9943Z" fill="white"/>
<path d="M14.8586 11.28C14.4641 11.28 14.1443 11.5998 14.1443 11.9943C14.1443 12.3888 14.4641 12.7086 14.8586 12.7086C15.2531 12.7086 15.5728 12.3888 15.5728 11.9943C15.5728 11.5998 15.2531 11.28 14.8586 11.28Z" fill="white"/>
</svg>
